<svg width="12" height="10" viewBox="0 0 12 10" fill="none" xmlns="http://www.w3.org/2000/svg">
<path fill-rule="evenodd" clip-rule="evenodd" d="M0.47144 4.45143C0.205203 4.48808 0 4.71968 0 4.99992C0 5.30564 0.244208 5.55347 0.545455 5.55347L10.1333 5.55347L6.66984 9.05423L6.6169 9.1162C6.45802 9.33257 6.47499 9.64013 6.66824 9.83706C6.88081 10.0537 7.22617 10.0544 7.43963 9.83868L11.8331 5.39842C11.8547 5.37729 11.8746 5.35437 11.8925 5.3299L11.8927 5.32969C12.0519 5.11265 12.0342 4.80406 11.8396 4.60737L7.4396 0.161287L7.3783 0.107824C7.16443 -0.0524988 6.86144 -0.0339699 6.66821 0.162973C6.45565 0.379612 6.4564 0.730097 6.66987 0.945805L10.1342 4.44637L0.545455 4.44637L0.47144 4.45143Z" fill="#130F26"/>
</svg>
