<?xml version="1.0" encoding="UTF-8"?>
<!DOCTYPE svg PUBLIC "-//W3C//DTD SVG 1.1//EN" "http://www.w3.org/Graphics/SVG/1.1/DTD/svg11.dtd">
<!-- Creator: CorelDRAW X8 -->
<svg xmlns="http://www.w3.org/2000/svg" xml:space="preserve" width="0.393701in" height="0.393701in" version="1.1" style="shape-rendering:geometricPrecision; text-rendering:geometricPrecision; image-rendering:optimizeQuality; fill-rule:evenodd; clip-rule:evenodd"
viewBox="0 0 394 394"
 xmlns:xlink="http://www.w3.org/1999/xlink">
 <defs>
  <style type="text/css">
   <![CDATA[
    .fil0 {fill:#FDC886}
   ]]>
  </style>
 </defs>
 <g id="Layer_x0020_1">
  <metadata id="CorelCorpID_0Corel-Layer"/>
  <g id="_2160300763728">
   <path class="fil0" d="M203 129c-6,-7 -6,-16 0,-22l22 -22 22 -22 49 -49 17 16 -49 49 16 17 49 -50 17 17 -50 49 17 17 49 -50 16 17 -49 49 -22 22 -22 22c-6,6 -15,6 -21,0l-6 -6 -8 8 -49 -49 8 -8 -6 -5zm-40 149l-88 89c-14,13 -36,13 -50,0 -13,-14 -13,-36 0,-50l90 -90 48 51z"/>
   <path class="fil0" d="M39 10c-10,20 -14,40 -12,60 2,22 12,43 31,64l117 123 16 -15 119 132c6,6 14,9 21,10 8,0 16,-2 22,-8l2 -1c6,-6 9,-13 9,-21 0,-7 -2,-15 -8,-21 -104,-109 -212,-216 -317,-323z"/>
  </g>
 </g>
</svg>
